<mxfile host="app.diagrams.net" agent="Mozilla/5.0 (Windows NT 10.0; Win64; x64) AppleWebKit/537.36 (KHTML, like Gecko) Chrome/130.0.0.0 Safari/537.36" version="24.8.6">
  <diagram id="C5RBs43oDa-KdzZeNtuy" name="Page-1">
    <mxGraphModel dx="727" dy="385" grid="1" gridSize="10" guides="1" tooltips="1" connect="1" arrows="1" fold="1" page="1" pageScale="1" pageWidth="827" pageHeight="1169" math="0" shadow="0">
      <root>
        <mxCell id="WIyWlLk6GJQsqaUBKTNV-0" />
        <mxCell id="WIyWlLk6GJQsqaUBKTNV-1" parent="WIyWlLk6GJQsqaUBKTNV-0" />
        <mxCell id="eKcNNRpMHhR2fJMRj497-0" value="" style="ellipse;whiteSpace=wrap;html=1;" vertex="1" parent="WIyWlLk6GJQsqaUBKTNV-1">
          <mxGeometry x="210" y="80" width="120" height="80" as="geometry" />
        </mxCell>
        <mxCell id="eKcNNRpMHhR2fJMRj497-3" value="" style="edgeStyle=orthogonalEdgeStyle;rounded=0;orthogonalLoop=1;jettySize=auto;html=1;" edge="1" parent="WIyWlLk6GJQsqaUBKTNV-1" source="eKcNNRpMHhR2fJMRj497-1" target="eKcNNRpMHhR2fJMRj497-2">
          <mxGeometry relative="1" as="geometry" />
        </mxCell>
        <mxCell id="eKcNNRpMHhR2fJMRj497-1" value="bắt đầu" style="ellipse;whiteSpace=wrap;html=1;" vertex="1" parent="WIyWlLk6GJQsqaUBKTNV-1">
          <mxGeometry x="210" y="80" width="120" height="80" as="geometry" />
        </mxCell>
        <mxCell id="eKcNNRpMHhR2fJMRj497-5" value="" style="edgeStyle=orthogonalEdgeStyle;rounded=0;orthogonalLoop=1;jettySize=auto;html=1;" edge="1" parent="WIyWlLk6GJQsqaUBKTNV-1" source="eKcNNRpMHhR2fJMRj497-2" target="eKcNNRpMHhR2fJMRj497-4">
          <mxGeometry relative="1" as="geometry" />
        </mxCell>
        <mxCell id="eKcNNRpMHhR2fJMRj497-2" value="nhập A,B" style="shape=parallelogram;perimeter=parallelogramPerimeter;whiteSpace=wrap;html=1;fixedSize=1;" vertex="1" parent="WIyWlLk6GJQsqaUBKTNV-1">
          <mxGeometry x="210" y="190" width="120" height="60" as="geometry" />
        </mxCell>
        <mxCell id="eKcNNRpMHhR2fJMRj497-7" value="" style="edgeStyle=orthogonalEdgeStyle;rounded=0;orthogonalLoop=1;jettySize=auto;html=1;" edge="1" parent="WIyWlLk6GJQsqaUBKTNV-1" source="eKcNNRpMHhR2fJMRj497-4" target="eKcNNRpMHhR2fJMRj497-6">
          <mxGeometry relative="1" as="geometry" />
        </mxCell>
        <mxCell id="eKcNNRpMHhR2fJMRj497-9" value="" style="edgeStyle=orthogonalEdgeStyle;rounded=0;orthogonalLoop=1;jettySize=auto;html=1;" edge="1" parent="WIyWlLk6GJQsqaUBKTNV-1" source="eKcNNRpMHhR2fJMRj497-4" target="eKcNNRpMHhR2fJMRj497-8">
          <mxGeometry relative="1" as="geometry" />
        </mxCell>
        <mxCell id="eKcNNRpMHhR2fJMRj497-4" value="a=b" style="rhombus;whiteSpace=wrap;html=1;" vertex="1" parent="WIyWlLk6GJQsqaUBKTNV-1">
          <mxGeometry x="230" y="380" width="80" height="80" as="geometry" />
        </mxCell>
        <mxCell id="eKcNNRpMHhR2fJMRj497-36" value="" style="edgeStyle=orthogonalEdgeStyle;rounded=0;orthogonalLoop=1;jettySize=auto;html=1;" edge="1" parent="WIyWlLk6GJQsqaUBKTNV-1" source="eKcNNRpMHhR2fJMRj497-6" target="eKcNNRpMHhR2fJMRj497-35">
          <mxGeometry relative="1" as="geometry" />
        </mxCell>
        <mxCell id="eKcNNRpMHhR2fJMRj497-6" value="ƯCLN = a = b" style="whiteSpace=wrap;html=1;" vertex="1" parent="WIyWlLk6GJQsqaUBKTNV-1">
          <mxGeometry x="360" y="400" width="80" height="40" as="geometry" />
        </mxCell>
        <mxCell id="eKcNNRpMHhR2fJMRj497-20" style="edgeStyle=orthogonalEdgeStyle;rounded=0;orthogonalLoop=1;jettySize=auto;html=1;exitX=0;exitY=0.5;exitDx=0;exitDy=0;entryX=1;entryY=0.5;entryDx=0;entryDy=0;" edge="1" parent="WIyWlLk6GJQsqaUBKTNV-1" source="eKcNNRpMHhR2fJMRj497-8" target="eKcNNRpMHhR2fJMRj497-11">
          <mxGeometry relative="1" as="geometry" />
        </mxCell>
        <mxCell id="eKcNNRpMHhR2fJMRj497-25" value="" style="edgeStyle=orthogonalEdgeStyle;rounded=0;orthogonalLoop=1;jettySize=auto;html=1;entryX=0.5;entryY=0;entryDx=0;entryDy=0;" edge="1" parent="WIyWlLk6GJQsqaUBKTNV-1" source="eKcNNRpMHhR2fJMRj497-8" target="eKcNNRpMHhR2fJMRj497-26">
          <mxGeometry relative="1" as="geometry">
            <mxPoint x="270" y="650" as="targetPoint" />
          </mxGeometry>
        </mxCell>
        <mxCell id="eKcNNRpMHhR2fJMRj497-8" value="a&amp;gt;b" style="rhombus;whiteSpace=wrap;html=1;" vertex="1" parent="WIyWlLk6GJQsqaUBKTNV-1">
          <mxGeometry x="230" y="520" width="80" height="80" as="geometry" />
        </mxCell>
        <mxCell id="eKcNNRpMHhR2fJMRj497-22" value="" style="edgeStyle=orthogonalEdgeStyle;rounded=0;orthogonalLoop=1;jettySize=auto;html=1;" edge="1" parent="WIyWlLk6GJQsqaUBKTNV-1" source="eKcNNRpMHhR2fJMRj497-11" target="eKcNNRpMHhR2fJMRj497-21">
          <mxGeometry relative="1" as="geometry" />
        </mxCell>
        <mxCell id="eKcNNRpMHhR2fJMRj497-11" value="a = a -b" style="whiteSpace=wrap;html=1;" vertex="1" parent="WIyWlLk6GJQsqaUBKTNV-1">
          <mxGeometry x="140" y="540" width="60" height="40" as="geometry" />
        </mxCell>
        <mxCell id="eKcNNRpMHhR2fJMRj497-17" value="đúng" style="text;html=1;align=center;verticalAlign=middle;resizable=0;points=[];autosize=1;strokeColor=none;fillColor=none;" vertex="1" parent="WIyWlLk6GJQsqaUBKTNV-1">
          <mxGeometry x="310" y="390" width="50" height="30" as="geometry" />
        </mxCell>
        <mxCell id="eKcNNRpMHhR2fJMRj497-18" value="sai" style="text;html=1;align=center;verticalAlign=middle;resizable=0;points=[];autosize=1;strokeColor=none;fillColor=none;" vertex="1" parent="WIyWlLk6GJQsqaUBKTNV-1">
          <mxGeometry x="270" y="468" width="40" height="30" as="geometry" />
        </mxCell>
        <mxCell id="eKcNNRpMHhR2fJMRj497-19" value="đúng" style="text;html=1;align=center;verticalAlign=middle;resizable=0;points=[];autosize=1;strokeColor=none;fillColor=none;" vertex="1" parent="WIyWlLk6GJQsqaUBKTNV-1">
          <mxGeometry x="195" y="528" width="50" height="30" as="geometry" />
        </mxCell>
        <mxCell id="eKcNNRpMHhR2fJMRj497-23" style="edgeStyle=orthogonalEdgeStyle;rounded=0;orthogonalLoop=1;jettySize=auto;html=1;exitX=0.5;exitY=0;exitDx=0;exitDy=0;entryX=0;entryY=0.5;entryDx=0;entryDy=0;" edge="1" parent="WIyWlLk6GJQsqaUBKTNV-1" source="eKcNNRpMHhR2fJMRj497-21" target="eKcNNRpMHhR2fJMRj497-4">
          <mxGeometry relative="1" as="geometry" />
        </mxCell>
        <mxCell id="eKcNNRpMHhR2fJMRj497-21" value="b = b-a" style="whiteSpace=wrap;html=1;" vertex="1" parent="WIyWlLk6GJQsqaUBKTNV-1">
          <mxGeometry x="60" y="540" width="60" height="40" as="geometry" />
        </mxCell>
        <mxCell id="eKcNNRpMHhR2fJMRj497-32" style="edgeStyle=orthogonalEdgeStyle;rounded=0;orthogonalLoop=1;jettySize=auto;html=1;exitX=0;exitY=0.5;exitDx=0;exitDy=0;entryX=1;entryY=0.5;entryDx=0;entryDy=0;" edge="1" parent="WIyWlLk6GJQsqaUBKTNV-1" source="eKcNNRpMHhR2fJMRj497-26" target="eKcNNRpMHhR2fJMRj497-27">
          <mxGeometry relative="1" as="geometry" />
        </mxCell>
        <mxCell id="eKcNNRpMHhR2fJMRj497-26" value="b = b-a" style="whiteSpace=wrap;html=1;" vertex="1" parent="WIyWlLk6GJQsqaUBKTNV-1">
          <mxGeometry x="240" y="660" width="60" height="40" as="geometry" />
        </mxCell>
        <mxCell id="eKcNNRpMHhR2fJMRj497-30" style="edgeStyle=orthogonalEdgeStyle;rounded=0;orthogonalLoop=1;jettySize=auto;html=1;exitX=0;exitY=0.5;exitDx=0;exitDy=0;entryX=0;entryY=0.5;entryDx=0;entryDy=0;" edge="1" parent="WIyWlLk6GJQsqaUBKTNV-1" source="eKcNNRpMHhR2fJMRj497-27" target="eKcNNRpMHhR2fJMRj497-4">
          <mxGeometry relative="1" as="geometry">
            <Array as="points">
              <mxPoint x="40" y="680" />
              <mxPoint x="40" y="420" />
            </Array>
          </mxGeometry>
        </mxCell>
        <mxCell id="eKcNNRpMHhR2fJMRj497-27" value="a = a -b" style="whiteSpace=wrap;html=1;" vertex="1" parent="WIyWlLk6GJQsqaUBKTNV-1">
          <mxGeometry x="160" y="660" width="60" height="40" as="geometry" />
        </mxCell>
        <mxCell id="eKcNNRpMHhR2fJMRj497-33" value="sai" style="text;html=1;align=center;verticalAlign=middle;resizable=0;points=[];autosize=1;strokeColor=none;fillColor=none;" vertex="1" parent="WIyWlLk6GJQsqaUBKTNV-1">
          <mxGeometry x="270" y="600" width="40" height="30" as="geometry" />
        </mxCell>
        <mxCell id="eKcNNRpMHhR2fJMRj497-34" value="gán a = A&lt;div&gt;b = B&lt;/div&gt;" style="rounded=0;whiteSpace=wrap;html=1;" vertex="1" parent="WIyWlLk6GJQsqaUBKTNV-1">
          <mxGeometry x="210" y="280" width="120" height="60" as="geometry" />
        </mxCell>
        <mxCell id="eKcNNRpMHhR2fJMRj497-39" style="edgeStyle=orthogonalEdgeStyle;rounded=0;orthogonalLoop=1;jettySize=auto;html=1;exitX=0.5;exitY=1;exitDx=0;exitDy=0;entryX=0.5;entryY=0;entryDx=0;entryDy=0;" edge="1" parent="WIyWlLk6GJQsqaUBKTNV-1" source="eKcNNRpMHhR2fJMRj497-35" target="eKcNNRpMHhR2fJMRj497-38">
          <mxGeometry relative="1" as="geometry" />
        </mxCell>
        <mxCell id="eKcNNRpMHhR2fJMRj497-35" value="BCNN = A*B/ƯCLN" style="whiteSpace=wrap;html=1;" vertex="1" parent="WIyWlLk6GJQsqaUBKTNV-1">
          <mxGeometry x="490" y="400" width="110" height="40" as="geometry" />
        </mxCell>
        <mxCell id="eKcNNRpMHhR2fJMRj497-38" value="kết thúc" style="ellipse;whiteSpace=wrap;html=1;" vertex="1" parent="WIyWlLk6GJQsqaUBKTNV-1">
          <mxGeometry x="485" y="520" width="120" height="80" as="geometry" />
        </mxCell>
      </root>
    </mxGraphModel>
  </diagram>
</mxfile>
